# xmcd
# Track frame offsets:
# 150
# 14505
# 25158
# 38381
# 51154
# 62770
# 75086
# 83505
# 98092
# 109530
# 120784
# 134580
# 148602
# 161874
# 175228
# 186534
# 199572
# 213966
# 228550
# 240552
# 253461
# 267220
# 281828
# 292749
# 307534
#
# Disc length: 4236 seconds
# Revision: 0
# Processed by: cddbd v1.5.1PL2 Copyright (c) Steve Scherf et al.
# Submitted via: VisiTrax 2.10.0.248 - For more info visit www.synapsa.com
#
DISCID=4d108a19
DTITLE=Nat King Cole - The Voice of Nat King Cole CD3
DYEAR=2006
DGENRE=
TTITLE0=Unforgettable
TTITLE1=It's Crazy
TTITLE2=Tenderly
TTITLE3=Darling, Je Vous Aime Beucoup
TTITLE4=You Stepped out of A Dream
TTITLE5=Pretend
TTITLE6=Almost Like Being In Love
TTITLE7=Angel Eyes
TTITLE8=A Blossom Fell
TTITLE9=This Can't Be Love
TTITLE10=Hold My Hand
TTITLE11=Hajji Baba (Persian Lament)
TTITLE12=Make Her Mine
TTITLE13=That's All
TTITLE14=Lover Come Back To Me
TTITLE15=Smile
TTITLE16=Faith Can Move Mountains
TTITLE17=Can't I
TTITLE18=Autumn Leaves
TTITLE19=The Blues From "Kiss Me Deadly" (I'd Rather Have the Blues)
TTITLE20=If I May
TTITLE21=I'm Gonna Laugh You Right Out of My Life
TTITLE22=When Rock and Roll Came to Trinidad
TTITLE23=Stardust
TTITLE24=When I Fall In Love
EXTD=MCPS\n2006\nDEL 800112
EXTT0=
EXTT1=
EXTT2=
EXTT3=
EXTT4=
EXTT5=
EXTT6=
EXTT7=
EXTT8=
EXTT9=
EXTT10=
EXTT11=
EXTT12=
EXTT13=
EXTT14=
EXTT15=
EXTT16=
EXTT17=
EXTT18=
EXTT19=
EXTT20=
EXTT21=
EXTT22=Track 23 - 25 Broadcast recordings with Nelson Riddle and his orchestr
EXTT22=a.
EXTT23=
EXTT24=
PLAYORDER=
